<svg width="50" height="50" viewBox="0 0 50 50" fill="none" xmlns="http://www.w3.org/2000/svg">
<rect width="50" height="50" rx="25" fill="#F4F4F4"/>
<path fill-rule="evenodd" clip-rule="evenodd" d="M27.6096 18.3909C27.8596 18.6412 28 18.9807 28 19.3347C28 19.6887 27.8596 20.0282 27.6096 20.2786L23.2186 24.6747L27.6096 29.0709C27.8525 29.3227 27.9869 29.6599 27.9838 30.0099C27.9808 30.36 27.8406 30.6948 27.5933 30.9423C27.3461 31.1898 27.0117 31.3302 26.6621 31.3333C26.3124 31.3363 25.9756 31.2018 25.7241 30.9586L20.3904 25.6186C20.1404 25.3682 20 25.0287 20 24.6747C20 24.3207 20.1404 23.9812 20.3904 23.7309L25.7241 18.3909C25.9742 18.1406 26.3133 18 26.6669 18C27.0204 18 27.3595 18.1406 27.6096 18.3909Z" fill="#D8D8D8"/>
</svg>
