<svg width="115" height="116" viewBox="0 0 115 116" fill="none" xmlns="http://www.w3.org/2000/svg">
<path fill-rule="evenodd" clip-rule="evenodd" d="M3 6C4.65685 6 6 4.65685 6 3C6 1.34315 4.65685 0 3 0C1.34315 0 0 1.34315 0 3C0 4.65685 1.34315 6 3 6ZM3 50C4.65685 50 6 48.6569 6 47C6 45.3431 4.65685 44 3 44C1.34315 44 0 45.3431 0 47C0 48.6569 1.34315 50 3 50ZM6 91C6 92.6569 4.65685 94 3 94C1.34315 94 0 92.6569 0 91C0 89.3431 1.34315 88 3 88C4.65685 88 6 89.3431 6 91ZM3 28C4.65685 28 6 26.6569 6 25C6 23.3431 4.65685 22 3 22C1.34315 22 0 23.3431 0 25C0 26.6569 1.34315 28 3 28ZM6 69C6 70.6569 4.65685 72 3 72C1.34315 72 0 70.6569 0 69C0 67.3431 1.34315 66 3 66C4.65685 66 6 67.3431 6 69ZM3 116C4.65685 116 6 114.657 6 113C6 111.343 4.65685 110 3 110C1.34315 110 0 111.343 0 113C0 114.657 1.34315 116 3 116ZM94 3C94 4.65685 92.6569 6 91 6C89.3431 6 88 4.65685 88 3C88 1.34315 89.3431 0 91 0C92.6569 0 94 1.34315 94 3ZM91 50C92.6569 50 94 48.6569 94 47C94 45.3431 92.6569 44 91 44C89.3431 44 88 45.3431 88 47C88 48.6569 89.3431 50 91 50ZM94 91C94 92.6569 92.6569 94 91 94C89.3431 94 88 92.6569 88 91C88 89.3431 89.3431 88 91 88C92.6569 88 94 89.3431 94 91ZM91 28C92.6569 28 94 26.6569 94 25C94 23.3431 92.6569 22 91 22C89.3431 22 88 23.3431 88 25C88 26.6569 89.3431 28 91 28ZM94 69C94 70.6569 92.6569 72 91 72C89.3431 72 88 70.6569 88 69C88 67.3431 89.3431 66 91 66C92.6569 66 94 67.3431 94 69ZM91 116C92.6569 116 94 114.657 94 113C94 111.343 92.6569 110 91 110C89.3431 110 88 111.343 88 113C88 114.657 89.3431 116 91 116ZM50 3C50 4.65685 48.6569 6 47 6C45.3431 6 44 4.65685 44 3C44 1.34315 45.3431 0 47 0C48.6569 0 50 1.34315 50 3ZM47 50C48.6569 50 50 48.6569 50 47C50 45.3431 48.6569 44 47 44C45.3431 44 44 45.3431 44 47C44 48.6569 45.3431 50 47 50ZM50 91C50 92.6569 48.6569 94 47 94C45.3431 94 44 92.6569 44 91C44 89.3431 45.3431 88 47 88C48.6569 88 50 89.3431 50 91ZM47 28C48.6569 28 50 26.6569 50 25C50 23.3431 48.6569 22 47 22C45.3431 22 44 23.3431 44 25C44 26.6569 45.3431 28 47 28ZM50 69C50 70.6569 48.6569 72 47 72C45.3431 72 44 70.6569 44 69C44 67.3431 45.3431 66 47 66C48.6569 66 50 67.3431 50 69ZM47 116C48.6569 116 50 114.657 50 113C50 111.343 48.6569 110 47 110C45.3431 110 44 111.343 44 113C44 114.657 45.3431 116 47 116ZM28 3C28 4.65685 26.6569 6 25 6C23.3431 6 22 4.65685 22 3C22 1.34315 23.3431 0 25 0C26.6569 0 28 1.34315 28 3ZM25 50C26.6569 50 28 48.6569 28 47C28 45.3431 26.6569 44 25 44C23.3431 44 22 45.3431 22 47C22 48.6569 23.3431 50 25 50ZM28 91C28 92.6569 26.6569 94 25 94C23.3431 94 22 92.6569 22 91C22 89.3431 23.3431 88 25 88C26.6569 88 28 89.3431 28 91ZM25 28C26.6569 28 28 26.6569 28 25C28 23.3431 26.6569 22 25 22C23.3431 22 22 23.3431 22 25C22 26.6569 23.3431 28 25 28ZM28 69C28 70.6569 26.6569 72 25 72C23.3431 72 22 70.6569 22 69C22 67.3431 23.3431 66 25 66C26.6569 66 28 67.3431 28 69ZM25 116C26.6569 116 28 114.657 28 113C28 111.343 26.6569 110 25 110C23.3431 110 22 111.343 22 113C22 114.657 23.3431 116 25 116ZM116 3C116 4.65685 114.657 6 113 6C111.343 6 110 4.65685 110 3C110 1.34315 111.343 0 113 0C114.657 0 116 1.34315 116 3ZM113 50C114.657 50 116 48.6569 116 47C116 45.3431 114.657 44 113 44C111.343 44 110 45.3431 110 47C110 48.6569 111.343 50 113 50ZM116 91C116 92.6569 114.657 94 113 94C111.343 94 110 92.6569 110 91C110 89.3431 111.343 88 113 88C114.657 88 116 89.3431 116 91ZM113 28C114.657 28 116 26.6569 116 25C116 23.3431 114.657 22 113 22C111.343 22 110 23.3431 110 25C110 26.6569 111.343 28 113 28ZM116 69C116 70.6569 114.657 72 113 72C111.343 72 110 70.6569 110 69C110 67.3431 111.343 66 113 66C114.657 66 116 67.3431 116 69ZM113 116C114.657 116 116 114.657 116 113C116 111.343 114.657 110 113 110C111.343 110 110 111.343 110 113C110 114.657 111.343 116 113 116ZM72 3C72 4.65685 70.6569 6 69 6C67.3431 6 66 4.65685 66 3C66 1.34315 67.3431 0 69 0C70.6569 0 72 1.34315 72 3ZM69 50C70.6569 50 72 48.6569 72 47C72 45.3431 70.6569 44 69 44C67.3431 44 66 45.3431 66 47C66 48.6569 67.3431 50 69 50ZM72 91C72 92.6569 70.6569 94 69 94C67.3431 94 66 92.6569 66 91C66 89.3431 67.3431 88 69 88C70.6569 88 72 89.3431 72 91ZM69 28C70.6569 28 72 26.6569 72 25C72 23.3431 70.6569 22 69 22C67.3431 22 66 23.3431 66 25C66 26.6569 67.3431 28 69 28ZM72 69C72 70.6569 70.6569 72 69 72C67.3431 72 66 70.6569 66 69C66 67.3431 67.3431 66 69 66C70.6569 66 72 67.3431 72 69ZM69 116C70.6569 116 72 114.657 72 113C72 111.343 70.6569 110 69 110C67.3431 110 66 111.343 66 113C66 114.657 67.3431 116 69 116Z" fill="#FCA19C"/>
</svg>
