<svg width="50" height="50" viewBox="0 0 50 50" fill="none" xmlns="http://www.w3.org/2000/svg">
<rect width="50" height="50" rx="25" fill="#E6BE57"/>
<path fill-rule="evenodd" clip-rule="evenodd" d="M22.3904 30.9425C22.1404 30.6921 22 30.3526 22 29.9986C22 29.6446 22.1404 29.3051 22.3904 29.0548L26.7814 24.6586L22.3904 20.2624C22.1475 20.0107 22.0131 19.6734 22.0162 19.3234C22.0192 18.9734 22.1594 18.6385 22.4067 18.391C22.6539 18.1435 22.9883 18.0031 23.3379 18.0001C23.6876 17.997 24.0244 18.1316 24.2759 18.3748L29.6096 23.7148C29.8596 23.9651 30 24.3046 30 24.6586C30 25.0126 29.8596 25.3521 29.6096 25.6025L24.2759 30.9425C24.0258 31.1927 23.6867 31.3333 23.3331 31.3333C22.9796 31.3333 22.6405 31.1927 22.3904 30.9425Z" fill="white"/>
</svg>
