<svg width="20" height="25" viewBox="0 0 20 25" fill="none" xmlns="http://www.w3.org/2000/svg">
<path d="M10.1822 17.7548C10.8486 17.7548 11.3889 17.2146 11.3889 16.5482C11.3889 15.8818 10.8486 15.3416 10.1822 15.3416C9.51582 15.3416 8.97559 15.8818 8.97559 16.5482C8.97559 17.2146 9.51582 17.7548 10.1822 17.7548Z" fill="#7D7CA1"/>
<path d="M16.2156 8.10172H15.0089V5.82118C15.0089 4.5411 14.5004 3.31344 13.5953 2.40829C12.6901 1.50314 11.4625 0.994629 10.1824 0.994629C8.90231 0.994629 7.67466 1.50314 6.76951 2.40829C5.86435 3.31344 5.35584 4.5411 5.35584 5.82118V8.10172H4.14921C3.18915 8.10172 2.26841 8.4831 1.58954 9.16197C0.910679 9.84083 0.529297 10.7616 0.529297 11.7216V21.3747C0.529297 22.3348 0.910679 23.2555 1.58954 23.9344C2.26841 24.6132 3.18915 24.9946 4.14921 24.9946H16.2156C17.1756 24.9946 18.0964 24.6132 18.7752 23.9344C19.4541 23.2555 19.8355 22.3348 19.8355 21.3747V11.7216C19.8355 10.7616 19.4541 9.84083 18.7752 9.16197C18.0964 8.4831 17.1756 8.10172 16.2156 8.10172ZM7.76912 5.82118C7.75289 5.16392 7.99771 4.527 8.45 4.04983C8.90229 3.57266 9.5252 3.29412 10.1824 3.27517C10.8396 3.29412 11.4625 3.57266 11.9148 4.04983C12.3671 4.527 12.6119 5.16392 12.5957 5.82118V8.10172H7.76912V5.82118ZM10.1824 20.1681C9.46644 20.1681 8.76657 19.9558 8.17128 19.558C7.57598 19.1603 7.11201 18.5949 6.83803 17.9335C6.56405 17.272 6.49236 16.5442 6.63203 15.842C6.77171 15.1398 7.11647 14.4948 7.62273 13.9885C8.12898 13.4823 8.77399 13.1375 9.47618 12.9978C10.1784 12.8581 10.9062 12.9298 11.5677 13.2038C12.2291 13.4778 12.7945 13.9418 13.1922 14.5371C13.59 15.1324 13.8023 15.8322 13.8023 16.5482C13.8023 17.5082 13.4209 18.429 12.7421 19.1078C12.0632 19.7867 11.1424 20.1681 10.1824 20.1681Z" fill="#7D7CA1"/>
</svg>
