<svg width="20" height="21" viewBox="0 0 20 21" fill="none" xmlns="http://www.w3.org/2000/svg">
<path d="M10.0293 9.99463C12.5146 9.99463 14.5293 7.97991 14.5293 5.49463C14.5293 3.00935 12.5146 0.994629 10.0293 0.994629C7.54401 0.994629 5.5293 3.00935 5.5293 5.49463C5.5293 7.97991 7.54401 9.99463 10.0293 9.99463Z" fill="#7D7CA1"/>
<path d="M19.4043 18.7679C18.6596 17.0648 17.3677 15.6039 15.6961 14.5745C14.0244 13.545 12.0502 12.9946 10.0293 12.9946C8.00842 12.9946 6.03416 13.545 4.36252 14.5745C2.69088 15.6039 1.39897 17.0648 0.654309 18.7679C0.546503 19.0142 0.507533 19.2809 0.540864 19.5442C0.574195 19.8075 0.678794 20.0593 0.845357 20.2771C1.01128 20.4993 1.23504 20.681 1.49686 20.8061C1.75867 20.9313 2.05047 20.996 2.34645 20.9946H17.7121C18.0081 20.996 18.2999 20.9313 18.5617 20.8061C18.8235 20.681 19.0473 20.4993 19.2132 20.2771C19.3798 20.0593 19.4844 19.8075 19.5177 19.5442C19.5511 19.2809 19.5121 19.0142 19.4043 18.7679Z" fill="#7D7CA1"/>
</svg>
